<svg xmlns="http://www.w3.org/2000/svg" viewBox="0 0 16 16" width="64" height="64"><rect width="16" height="16" rx="3" fill="#FFFFFF"/><path fill="#5893D4" stroke="#5893D4" stroke-width="40" stroke-linejoin="round" transform="translate(-22.856 -1.695) scale(0.03107)" d="M1072 481C1069 478 1064 474 1062 472C1057 466 1054 466 1048 469C1043 472 1036 470 1029 464C1026 461 1021 459 1019 459C1018 459 1018 461 1018 464C1018 477 1007 484 998 477C992 472 980 459 976 453C968 442 965 441 961 446C958 451 955 450 946 443C927 428 908 405 894 382C890 374 889 373 888 370C887 368 886 365 885 364C881 356 878 349 877 344C876 342 875 336 874 332C872 327 871 319 870 312C869 299 868 296 863 296C852 296 848 319 857 340C859 345 862 352 863 354C866 366 877 385 891 402C892 404 895 408 897 411C899 414 902 418 903 419C909 427 909 436 904 437C901 437 885 419 877 407C875 405 872 401 870 397C867 394 865 390 864 388C863 387 862 385 861 385C861 385 858 381 855 378C852 374 848 369 846 366C844 364 841 361 840 359C834 353 830 357 835 365C836 367 838 370 839 372C839 374 841 378 843 382C852 400 854 409 850 421C849 427 849 430 850 442C850 450 850 458 850 460C850 468 843 471 840 465C836 457 834 421 837 413C840 404 838 393 831 383C823 372 815 344 818 338C822 329 827 330 841 343C850 352 854 351 848 341C847 339 846 336 846 335C846 335 845 331 843 326C836 303 843 282 859 281C863 281 867 281 868 281C869 281 871 277 873 273C880 258 886 256 906 260C910 260 911 258 911 247C911 225 917 211 927 205C931 203 943 204 947 206C951 207 951 207 956 202C964 195 967 194 974 195C982 195 982 196 983 183C987 160 1002 148 1017 158C1026 163 1030 163 1031 157C1033 150 1046 140 1053 140C1066 140 1093 164 1107 188C1108 190 1111 195 1113 197C1114 200 1116 203 1117 204C1117 205 1120 211 1123 218C1125 224 1129 232 1131 237C1133 242 1136 248 1138 250C1139 253 1141 258 1142 262C1143 266 1145 273 1147 278C1149 283 1152 291 1153 296C1154 301 1155 306 1156 308C1157 310 1158 314 1159 317C1159 319 1160 324 1162 328C1163 332 1165 341 1165 348C1166 355 1167 364 1168 366C1171 384 1172 422 1170 432C1166 445 1164 449 1160 452C1153 458 1141 458 1134 454C1133 452 1130 451 1128 450C1125 448 1114 437 1110 432C1109 429 1106 425 1104 422C1102 420 1098 414 1096 410C1093 405 1090 402 1090 402C1090 402 1088 400 1087 398C1083 392 1078 396 1082 403C1083 406 1084 410 1085 413C1086 416 1087 421 1088 425C1089 429 1091 438 1092 446C1096 481 1090 493 1072 481ZM1080 463C1082 460 1081 435 1079 428C1078 425 1076 420 1075 416C1075 412 1073 407 1072 403C1071 400 1069 393 1068 388C1068 384 1066 377 1065 375C1064 372 1062 366 1061 362C1058 352 1056 348 1051 336C1048 329 1045 322 1044 320C1043 317 1042 313 1040 310C1039 307 1038 304 1038 303C1038 302 1037 299 1036 296C1034 293 1033 288 1032 284C1031 278 1029 273 1022 261C1022 260 1020 257 1020 256C1015 247 996 222 994 222C991 222 990 225 990 232C990 241 990 240 1001 258C1004 261 1006 266 1008 268C1009 271 1012 277 1014 280C1016 284 1019 290 1020 293C1021 296 1022 299 1023 299C1024 301 1030 314 1032 322C1033 325 1036 332 1038 338C1040 343 1042 351 1043 355C1044 359 1045 366 1047 370C1053 392 1055 409 1057 434C1057 449 1058 451 1069 460C1075 465 1078 466 1080 463ZM1003 458C1004 457 1004 452 1002 442C1001 436 996 426 993 420C987 411 985 408 985 405C984 404 983 400 981 398C980 397 979 395 979 394C979 394 978 391 977 389C975 387 973 382 973 379C972 376 970 373 969 371C969 370 967 367 966 364C965 361 964 357 963 355C962 353 961 349 961 347C960 341 956 331 953 325C952 323 950 320 949 318C948 315 943 309 938 303C928 292 925 290 923 295C922 299 924 319 927 326C928 329 929 333 930 335C930 337 931 341 932 344C934 348 935 353 936 355C936 357 937 361 939 364C940 366 941 368 941 369C941 370 942 373 944 377C946 380 947 383 947 384C947 385 948 387 949 388C950 390 953 396 955 402C958 407 961 413 962 414C963 415 966 420 968 424C982 445 999 463 1003 458ZM1042 449C1043 448 1043 446 1038 440C1036 437 1033 431 1030 426C1027 420 1024 415 1023 413C1022 412 1021 410 1021 409C1021 408 1020 405 1018 401C1014 393 1011 386 1008 378C1007 373 1004 365 1002 360C1000 354 997 346 996 342C996 337 994 332 993 330C990 319 986 297 984 274C981 245 980 244 972 236C962 228 960 228 958 238C954 254 953 277 957 294C957 297 959 304 959 308C960 315 965 327 968 332C969 333 970 335 971 338C972 340 973 343 974 345C976 347 977 350 977 351C978 352 979 355 980 356C981 357 982 360 983 362C983 364 988 375 993 385C994 387 995 391 996 394C997 397 998 399 999 400C999 401 1001 404 1002 407C1003 410 1004 413 1005 414C1005 416 1007 419 1007 422C1009 428 1025 447 1032 450C1036 451 1040 451 1042 449ZM1140 430C1141 428 1141 419 1140 410C1139 403 1137 396 1132 384C1131 381 1129 376 1128 372C1126 366 1124 359 1119 350C1118 347 1116 343 1115 340C1114 336 1112 330 1110 326C1108 321 1106 314 1104 311C1102 304 1100 300 1094 287C1093 285 1092 282 1092 281C1092 280 1072 241 1071 239C1070 238 1068 236 1068 234C1066 230 1056 216 1048 205C1042 197 1037 194 1035 196C1031 203 1035 261 1041 272C1042 275 1043 279 1044 282C1045 285 1047 287 1047 287C1047 288 1049 290 1050 293C1051 296 1052 300 1053 301C1054 302 1055 305 1056 308C1056 310 1058 316 1059 319C1061 323 1062 327 1062 327C1062 328 1063 332 1064 335C1066 338 1067 342 1067 343C1067 348 1069 353 1074 357C1077 360 1079 363 1079 365C1083 383 1136 441 1140 430ZM1045 422C1046 421 1046 415 1045 409C1044 400 1043 395 1037 374C1037 371 1035 365 1034 360C1033 356 1031 351 1030 348C1027 338 1025 332 1024 330C1023 329 1022 325 1021 323C1020 319 1017 311 1011 300C1010 297 1007 290 1005 285C1000 274 993 267 993 273C993 284 1000 319 1005 337C1006 341 1008 347 1009 351C1010 355 1012 362 1014 366C1015 369 1017 376 1019 380C1021 387 1022 388 1033 410C1040 427 1043 430 1045 422ZM1158 422C1161 413 1160 376 1154 354C1153 349 1152 340 1151 335C1150 327 1147 316 1143 304C1142 302 1141 297 1140 294C1140 290 1138 285 1137 282C1136 279 1134 274 1133 271C1132 267 1131 264 1130 264C1130 263 1128 260 1127 256C1125 247 1105 207 1097 192C1089 180 1073 163 1068 162C1066 161 1064 160 1062 159C1057 155 1047 160 1043 169C1039 177 1039 177 1050 189C1054 194 1056 196 1070 217C1076 225 1080 232 1081 234C1081 235 1082 236 1083 237C1084 239 1089 247 1091 252C1096 262 1100 271 1101 272C1102 272 1103 274 1103 277C1104 280 1106 285 1107 288C1112 297 1117 308 1117 309C1117 310 1119 314 1121 320C1123 325 1127 333 1128 338C1130 343 1131 347 1132 347C1132 348 1133 350 1134 352C1135 355 1136 358 1137 360C1138 361 1139 365 1140 368C1141 370 1142 375 1143 379C1150 397 1154 414 1154 424C1154 426 1157 425 1158 422ZM948 420C948 417 947 413 942 404C939 397 936 391 936 390C936 389 935 387 934 386C933 385 931 381 930 379C923 366 918 357 915 352C914 351 913 348 912 346C911 344 908 340 907 338C905 336 902 332 901 330C899 325 886 310 885 310C874 310 888 356 906 380C908 382 910 386 912 388C920 401 942 424 946 424C948 424 948 423 948 420ZM918 330C918 328 917 323 916 319C915 315 913 306 913 297C911 279 909 276 898 276C891 276 890 277 886 283C882 290 882 291 891 301C895 306 900 313 902 316C904 318 907 322 908 324C909 325 911 328 912 330C914 334 917 334 918 330ZM947 286C945 273 945 251 946 239C949 223 948 222 939 222C928 223 922 237 922 262C922 271 922 271 933 282C944 293 948 294 947 286ZM1023 220C1023 211 1023 200 1024 193C1025 182 1025 182 1020 177C1011 170 999 174 996 186C996 188 995 192 994 194C992 203 993 204 1003 215C1006 218 1010 223 1012 226C1016 232 1021 237 1023 237C1023 237 1024 232 1023 220ZM979 222C980 220 980 216 978 213C976 209 970 210 969 215C969 220 975 225 979 222Z"/></svg>
